<svg width="20" height="14" viewBox="0 0 20 14" fill="none" xmlns="http://www.w3.org/2000/svg">
<path d="M0.00848389 10.8824H2.19412H4.37976V13.5546H0.00848389V10.8824Z" fill="white"/>
<path d="M5.02448 10.8824H7.35341H9.68234V13.5546H5.02448V10.8824Z" fill="white"/>
<path d="M10.3268 10.8824H12.6557H14.9846V13.5546H10.3268V10.8824Z" fill="white"/>
<path d="M10.3268 7.44189H12.6557H14.9846V10.1141H10.3268V7.44189Z" fill="white"/>
<path d="M15.6291 10.8824H17.8103H19.9915V13.5546H15.6291V10.8824Z" fill="white"/>
<path d="M15.6291 7.44189H17.8103H19.9915V10.1141H15.6291V7.44189Z" fill="white"/>
<path d="M15.6291 3.8667H17.8103H19.9915V6.53887H15.6291V3.8667Z" fill="white"/>
<path d="M15.6291 0.445374H17.8103H19.9915V3.11755H15.6291V0.445374Z" fill="white"/>
<path d="M5.02448 7.44189H7.35341H9.68234V10.1141H5.02448V7.44189Z" fill="white"/>
<path d="M5.02448 3.85175H7.35341H9.68234V6.52392H5.02448V3.85175Z" fill="white"/>
</svg>
