<svg width="30" height="34" viewBox="0 0 30 34" fill="none" xmlns="http://www.w3.org/2000/svg">
<path d="M2.25 8.5L6.5 2.83333H23.5L27.75 8.5M2.25 8.5V28.3333C2.25 29.0848 2.54851 29.8054 3.07986 30.3368C3.61122 30.8682 4.33189 31.1667 5.08333 31.1667H24.9167C25.6681 31.1667 26.3888 30.8682 26.9201 30.3368C27.4515 29.8054 27.75 29.0848 27.75 28.3333V8.5M2.25 8.5H27.75M20.6667 14.1667C20.6667 15.6696 20.0696 17.1109 19.0069 18.1736C17.9442 19.2363 16.5029 19.8333 15 19.8333C13.4971 19.8333 12.0558 19.2363 10.9931 18.1736C9.93035 17.1109 9.33333 15.6696 9.33333 14.1667" stroke="white" stroke-width="4" stroke-linecap="round" stroke-linejoin="round"/>
</svg>
